# xmcd
#
# Track frame offsets: 
#        150
#        15307
#        27590
#        48612
#        63492
#        81020
#        95800
#        119042
#        144992
#        172912
#        205690
#        223495
#
# Disc length: 3289 seconds
#
# Revision: 1
# Processed by: cddbd v1.5.2PL0 Copyright (c) Steve Scherf et al.
# Submitted via: ExactAudioCopy v0.99pb4
#
DISCID=af0cd70c
DTITLE=Scott Holt - Angels In Exile
DYEAR=2001
DGENRE=Blues Rock
TTITLE0=Baby Let's Go
TTITLE1=Too Far Gone
TTITLE2=Angels In Exile
TTITLE3=Dress You Up
TTITLE4=The Unforgiven
TTITLE5=I'll Make Love To You Anytime
TTITLE6=Up In Flames
TTITLE7=Spanish Moon
TTITLE8=I've Got A Mind To Give Up Living
TTITLE9=Blind Willie McTell
TTITLE10=Who You're Thinking Of
TTITLE11=Strong Enough For Goodbye
EXTD=
EXTT0=
EXTT1=
EXTT2=
EXTT3=
EXTT4=
EXTT5=
EXTT6=
EXTT7=
EXTT8=
EXTT9=
EXTT10=
EXTT11=
PLAYORDER=
